<svg width="17" height="16" viewBox="0 0 17 16" fill="currentColor"
  xmlns="http://www.w3.org/2000/svg">
  <path
    d="M14.4626 7.6172C14.5111 7.66719 14.5496 7.72656 14.5758 7.7919C14.6021 7.85725 14.6156 7.9273 14.6156 7.99804C14.6156 8.06878 14.6021 8.13883 14.5758 8.20417C14.5496 8.26952 14.5111 8.32889 14.4626 8.37888L9.11089 13.8964C8.42578 14.6031 7.4966 15.0001 6.52777 15C5.55893 14.9999 4.6298 14.6028 3.94478 13.8961C3.25975 13.1893 2.87494 12.2307 2.875 11.2313C2.87506 10.2318 3.25999 9.2733 3.9451 8.56661L10.4193 1.78948C10.9084 1.28436 11.572 1.00038 12.2641 1C12.9562 0.999622 13.6201 1.28288 14.1097 1.78746C14.5993 2.29205 14.8746 2.97662 14.875 3.69059C14.8754 4.40456 14.6008 5.08943 14.1117 5.59455L7.63616 12.3717C7.34209 12.6751 6.94323 12.8455 6.52735 12.8455C6.11146 12.8455 5.7126 12.6751 5.41853 12.3717C5.12445 12.0683 4.95924 11.6568 4.95924 11.2278C4.95924 10.7988 5.12445 10.3873 5.41853 10.0839L10.8517 4.39012C10.8993 4.33774 10.9566 4.29571 11.0202 4.26651C11.0838 4.23731 11.1523 4.22152 11.2219 4.22008C11.2915 4.21863 11.3607 4.23156 11.4253 4.2581C11.49 4.28464 11.5488 4.32425 11.5984 4.37461C11.648 4.42497 11.6874 4.48506 11.7141 4.55133C11.7409 4.61761 11.7545 4.68874 11.7542 4.76053C11.7539 4.83232 11.7397 4.90333 11.7124 4.96937C11.6851 5.03541 11.6453 5.09515 11.5953 5.14508L6.16143 10.8449C6.11278 10.8947 6.07411 10.9539 6.04764 11.0191C6.02116 11.0843 6.00739 11.1543 6.00712 11.225C6.00685 11.2957 6.02007 11.3658 6.04605 11.4312C6.07202 11.4966 6.11023 11.5561 6.1585 11.6063C6.20677 11.6565 6.26414 11.6964 6.32735 11.7237C6.39056 11.751 6.45837 11.7652 6.5269 11.7655C6.59543 11.7658 6.66335 11.7521 6.72676 11.7253C6.79018 11.6985 6.84787 11.6591 6.89652 11.6093L13.3714 4.83556C13.6654 4.53281 13.8309 4.12194 13.8313 3.69335C13.8318 3.26475 13.6671 2.85354 13.3737 2.55016C13.0802 2.24679 12.6819 2.0761 12.2664 2.07566C11.851 2.07522 11.4524 2.24506 11.1583 2.54781L4.6854 9.32224C4.44291 9.572 4.25049 9.86858 4.11911 10.1951C3.98773 10.5215 3.91996 10.8715 3.91969 11.225C3.91942 11.5785 3.98664 11.9286 4.11752 12.2553C4.24839 12.5819 4.44036 12.8788 4.68247 13.129C4.92457 13.3792 5.21206 13.5777 5.52853 13.7132C5.845 13.8487 6.18424 13.9186 6.5269 13.9189C6.86956 13.9192 7.20891 13.8498 7.52559 13.7148C7.84227 13.5798 8.13006 13.3818 8.37255 13.132L13.7249 7.6145C13.8231 7.51399 13.9559 7.45781 14.0943 7.45831C14.2326 7.45881 14.3651 7.51596 14.4626 7.6172Z"
    fill="currentColor" />
</svg>
