<svg width="16" height="16" viewBox="0 0 16 16" fill="none" xmlns="http://www.w3.org/2000/svg">
  <path
    d="M13.4167 2.07692H11.7917V1.53846C11.7917 1.39565 11.7346 1.25869 11.633 1.15771C11.5314 1.05673 11.3937 1 11.25 1C11.1063 1 10.9686 1.05673 10.867 1.15771C10.7654 1.25869 10.7083 1.39565 10.7083 1.53846V2.07692H5.29167V1.53846C5.29167 1.39565 5.2346 1.25869 5.13302 1.15771C5.03143 1.05673 4.89366 1 4.75 1C4.60634 1 4.46857 1.05673 4.36698 1.15771C4.2654 1.25869 4.20833 1.39565 4.20833 1.53846V2.07692H2.58333C2.29602 2.07692 2.02047 2.19038 1.8173 2.39235C1.61414 2.59431 1.5 2.86823 1.5 3.15385V13.9231C1.5 14.2087 1.61414 14.4826 1.8173 14.6846C2.02047 14.8865 2.29602 15 2.58333 15H13.4167C13.704 15 13.9795 14.8865 14.1827 14.6846C14.3859 14.4826 14.5 14.2087 14.5 13.9231V3.15385C14.5 2.86823 14.3859 2.59431 14.1827 2.39235C13.9795 2.19038 13.704 2.07692 13.4167 2.07692ZM4.20833 3.15385V3.69231C4.20833 3.83512 4.2654 3.97208 4.36698 4.07306C4.46857 4.17404 4.60634 4.23077 4.75 4.23077C4.89366 4.23077 5.03143 4.17404 5.13302 4.07306C5.2346 3.97208 5.29167 3.83512 5.29167 3.69231V3.15385H10.7083V3.69231C10.7083 3.83512 10.7654 3.97208 10.867 4.07306C10.9686 4.17404 11.1063 4.23077 11.25 4.23077C11.3937 4.23077 11.5314 4.17404 11.633 4.07306C11.7346 3.97208 11.7917 3.83512 11.7917 3.69231V3.15385H13.4167V5.30769H2.58333V3.15385H4.20833ZM13.4167 13.9231H2.58333V6.38462H13.4167V13.9231Z"
    fill="currentColor" />
</svg>
