<svg width="17" height="16" viewBox="0 0 17 16" fill="currentColor" xmlns="http://www.w3.org/2000/svg">
  <path
    d="M8.33325 1C6.94878 1 5.59541 1.41054 4.44426 2.17971C3.29312 2.94888 2.39591 4.04213 1.8661 5.32122C1.33628 6.6003 1.19766 8.00776 1.46776 9.36563C1.73785 10.7235 2.40454 11.9708 3.38351 12.9497C4.36247 13.9287 5.60976 14.5954 6.96762 14.8655C8.32549 15.1356 9.73295 14.997 11.012 14.4672C12.2911 13.9373 13.3844 13.0401 14.1535 11.889C14.9227 10.7378 15.3333 9.38447 15.3333 8C15.3313 6.14409 14.5932 4.36475 13.2808 3.05242C11.9685 1.74009 10.1892 1.00196 8.33325 1ZM14.2314 7.46154H11.5506C11.4557 5.54596 10.8593 3.72798 9.85979 2.27885C11.0304 2.59313 12.0768 3.2582 12.8583 4.18469C13.6398 5.11118 14.119 6.25469 14.2314 7.46154ZM8.33325 13.9157C7.07258 12.5513 6.30797 10.6176 6.19489 8.53846H10.4716C10.3585 10.6162 9.59393 12.5513 8.33325 13.9157ZM6.19489 7.46154C6.30797 5.38375 7.06989 3.44865 8.33325 2.08433C9.59393 3.44865 10.3585 5.3824 10.4716 7.46154H6.19489ZM6.80672 2.27885C5.8072 3.72798 5.21085 5.54596 5.11595 7.46154H2.43508C2.54754 6.25469 3.02672 5.11118 3.80822 4.18469C4.58972 3.2582 5.63609 2.59313 6.80672 2.27885ZM2.43508 8.53846H5.11595C5.21085 10.454 5.8072 12.272 6.80672 13.7212C5.63609 13.4069 4.58972 12.7418 3.80822 11.8153C3.02672 10.8888 2.54754 9.74531 2.43508 8.53846ZM9.85979 13.7212C10.8593 12.27 11.4557 10.452 11.5506 8.53846H14.2314C14.119 9.74531 13.6398 10.8888 12.8583 11.8153C12.0768 12.7418 11.0304 13.4069 9.85979 13.7212Z"
    fill="currentColor" />
</svg>
