<svg width="16" height="16" viewBox="0 0 16 16" fill="none" xmlns="http://www.w3.org/2000/svg">
  <path
    d="M10.736 12.5039C10.5903 12.5039 10.4654 12.4462 10.3613 12.3309C10.2573 12.2155 10.2052 12.0733 10.2052 11.9041V9.21673L7.42634 4.43021C7.33614 4.26874 7.30145 4.1188 7.32226 3.98039C7.34308 3.8343 7.40205 3.71896 7.49919 3.63438C7.60327 3.54211 7.72123 3.49597 7.85306 3.49597C7.97101 3.49597 8.06468 3.52673 8.13407 3.58824C8.20345 3.64207 8.26937 3.7228 8.33182 3.83045L10.9754 8.47857H10.5591L13.2443 3.78432C13.2998 3.69205 13.3657 3.62284 13.442 3.57671C13.5183 3.52288 13.612 3.49597 13.723 3.49597C13.8479 3.49597 13.952 3.54595 14.0353 3.64591C14.1185 3.73818 14.1671 3.85736 14.181 4.00346C14.1949 4.14186 14.1602 4.28411 14.0769 4.43021L11.2772 9.21673V11.9041C11.2772 12.0733 11.2252 12.2155 11.1211 12.3309C11.017 12.4462 10.8887 12.5039 10.736 12.5039Z"
    fill="currentColor" />
  <path
    d="M2.35724 12.5039C2.2046 12.5039 2.07623 12.4462 1.97216 12.3309C1.86808 12.2156 1.81604 12.0733 1.81604 11.9042V4.09578C1.81604 3.91893 1.86808 3.77668 1.97216 3.66903C2.07623 3.55369 2.2046 3.49602 2.35724 3.49602H4.4388C4.95918 3.49602 5.42059 3.6229 5.82303 3.87664C6.22546 4.13038 6.53769 4.48409 6.75973 4.93775C6.9887 5.38372 7.10318 5.8989 7.10318 6.48328C7.10318 7.04459 6.9887 7.54438 6.75973 7.98267C6.53769 8.42095 6.22546 8.76312 5.82303 9.00917C5.42059 9.25523 4.95918 9.37826 4.4388 9.37826H2.89845V11.9042C2.89845 12.0733 2.84641 12.2156 2.74233 12.3309C2.64519 12.4462 2.51683 12.5039 2.35724 12.5039ZM2.89845 8.27101H4.4388C4.75797 8.27101 5.03898 8.19412 5.28182 8.04034C5.52467 7.88655 5.71548 7.6751 5.85425 7.40598C5.99302 7.13686 6.06241 6.82929 6.06241 6.48328C6.06241 6.11419 5.99302 5.79125 5.85425 5.51444C5.71548 5.22994 5.52467 5.00695 5.28182 4.84548C5.03898 4.684 4.75797 4.60327 4.4388 4.60327H2.89845V8.27101Z"
    fill="currentColor" />
</svg>
